<svg width="270" height="72" viewBox="0 0 270 72" fill="none" xmlns="http://www.w3.org/2000/svg">
<g clip-path="url(#clip0_2_2)">
<rect width="270" height="72" fill=""/>
<rect x="124" y="1" width="146" height="79" rx="10" fill="#D6470A"/>
<path d="M139.545 58H133.636L150.727 11.4545H156.545L173.636 58H167.727L153.818 18.8182H153.455L139.545 58ZM141.727 39.8182H165.545V44.8182H141.727V39.8182ZM180.886 58V11.4545H196.614C200.25 11.4545 203.235 12.0758 205.568 13.3182C207.902 14.5455 209.629 16.2348 210.75 18.3864C211.871 20.5379 212.432 22.9848 212.432 25.7273C212.432 28.4697 211.871 30.9015 210.75 33.0227C209.629 35.1439 207.909 36.8106 205.591 38.0227C203.273 39.2197 200.311 39.8182 196.705 39.8182H183.977V34.7273H196.523C199.008 34.7273 201.008 34.3636 202.523 33.6364C204.053 32.9091 205.159 31.8788 205.841 30.5455C206.538 29.197 206.886 27.5909 206.886 25.7273C206.886 23.8636 206.538 22.2348 205.841 20.8409C205.144 19.447 204.03 18.3712 202.5 17.6136C200.97 16.8409 198.947 16.4545 196.432 16.4545H186.523V58H180.886ZM202.795 37.0909L214.25 58H207.705L196.432 37.0909H202.795ZM221.824 58V11.4545H227.46V34.5455H228.006L248.915 11.4545H256.278L236.733 32.4545L256.278 58H249.46L233.278 36.3636L227.46 42.9091V58H221.824Z" fill="white"/>
<g filter="url(#filter0_d_2_2)">
<mask id="path-3-outside-1_2_2" maskUnits="userSpaceOnUse" x="15" y="12" width="106" height="49" fill="black">
<rect fill="#664949" x="15" y="12" width="106" height="49"/>
<path d="M16.5455 20.5227V13.4545H53.6818V20.5227H39.2955V60H30.9318V20.5227H16.5455ZM70.6364 60L57.5 13.4545H66.5682L74.9545 47.6591H75.3864L84.3409 13.4545H92.5909L101.568 47.6818H101.977L110.364 13.4545H119.432L106.295 60H97.9773L88.6591 27.3409H88.2955L78.9545 60H70.6364Z"/>
</mask>
<path d="M16.5455 20.5227V13.4545H53.6818V20.5227H39.2955V60H30.9318V20.5227H16.5455ZM70.6364 60L57.5 13.4545H66.5682L74.9545 47.6591H75.3864L84.3409 13.4545H92.5909L101.568 47.6818H101.977L110.364 13.4545H119.432L106.295 60H97.9773L88.6591 27.3409H88.2955L78.9545 60H70.6364Z" fill="#C0D9F1"/>
<path d="M16.5455 20.5227H15.5455V21.5227H16.5455V20.5227ZM16.5455 13.4545V12.4545H15.5455V13.4545H16.5455ZM53.6818 13.4545H54.6818V12.4545H53.6818V13.4545ZM53.6818 20.5227V21.5227H54.6818V20.5227H53.6818ZM39.2955 20.5227V19.5227H38.2955V20.5227H39.2955ZM39.2955 60V61H40.2955V60H39.2955ZM30.9318 60H29.9318V61H30.9318V60ZM30.9318 20.5227H31.9318V19.5227H30.9318V20.5227ZM17.5455 20.5227V13.4545H15.5455V20.5227H17.5455ZM16.5455 14.4545H53.6818V12.4545H16.5455V14.4545ZM52.6818 13.4545V20.5227H54.6818V13.4545H52.6818ZM53.6818 19.5227H39.2955V21.5227H53.6818V19.5227ZM38.2955 20.5227V60H40.2955V20.5227H38.2955ZM39.2955 59H30.9318V61H39.2955V59ZM31.9318 60V20.5227H29.9318V60H31.9318ZM30.9318 19.5227H16.5455V21.5227H30.9318V19.5227ZM70.6364 60L69.674 60.2716L69.8795 61H70.6364V60ZM57.5 13.4545V12.4545H56.1787L56.5376 13.7262L57.5 13.4545ZM66.5682 13.4545L67.5394 13.2164L67.3526 12.4545H66.5682V13.4545ZM74.9545 47.6591L73.9833 47.8972L74.1701 48.6591H74.9545V47.6591ZM75.3864 47.6591V48.6591H76.1583L76.3538 47.9124L75.3864 47.6591ZM84.3409 13.4545V12.4545H83.569L83.3735 13.2013L84.3409 13.4545ZM92.5909 13.4545L93.5582 13.2008L93.3625 12.4545H92.5909V13.4545ZM101.568 47.6818L100.601 47.9355L100.797 48.6818H101.568V47.6818ZM101.977 47.6818V48.6818H102.762L102.949 47.9198L101.977 47.6818ZM110.364 13.4545V12.4545H109.579L109.392 13.2166L110.364 13.4545ZM119.432 13.4545L120.394 13.7262L120.753 12.4545H119.432V13.4545ZM106.295 60V61H107.052L107.258 60.2716L106.295 60ZM97.9773 60L97.0157 60.2744L97.2227 61H97.9773V60ZM88.6591 27.3409L89.6207 27.0665L89.4137 26.3409H88.6591V27.3409ZM88.2955 27.3409V26.3409H87.5414L87.334 27.0659L88.2955 27.3409ZM78.9545 60V61H79.7086L79.916 60.275L78.9545 60ZM71.5988 59.7284L58.4624 13.1829L56.5376 13.7262L69.674 60.2716L71.5988 59.7284ZM57.5 14.4545H66.5682V12.4545H57.5V14.4545ZM65.5969 13.6927L73.9833 47.8972L75.9258 47.421L67.5394 13.2164L65.5969 13.6927ZM74.9545 48.6591H75.3864V46.6591H74.9545V48.6591ZM76.3538 47.9124L85.3083 13.7078L83.3735 13.2013L74.419 47.4058L76.3538 47.9124ZM84.3409 14.4545H92.5909V12.4545H84.3409V14.4545ZM91.6236 13.7082L100.601 47.9355L102.535 47.4281L93.5582 13.2008L91.6236 13.7082ZM101.568 48.6818H101.977V46.6818H101.568V48.6818ZM102.949 47.9198L111.335 13.6925L109.392 13.2166L101.006 47.4438L102.949 47.9198ZM110.364 14.4545H119.432V12.4545H110.364V14.4545ZM118.469 13.1829L105.333 59.7284L107.258 60.2716L120.394 13.7262L118.469 13.1829ZM106.295 59H97.9773V61H106.295V59ZM98.9389 59.7256L89.6207 27.0665L87.6975 27.6153L97.0157 60.2744L98.9389 59.7256ZM88.6591 26.3409H88.2955V28.3409H88.6591V26.3409ZM87.334 27.0659L77.9931 59.725L79.916 60.275L89.2569 27.6159L87.334 27.0659ZM78.9545 59H70.6364V61H78.9545V59Z" fill="#352E70" mask="url(#path-3-outside-1_2_2)"/>
</g>
</g>
<defs>
<filter id="filter0_d_2_2" x="12.5454" y="13.4545" width="110.886" height="54.5455" filterUnits="userSpaceOnUse" color-interpolation-filters="sRGB">
<feFlood flood-opacity="0" result="BackgroundImageFix"/>
<feColorMatrix in="SourceAlpha" type="matrix" values="0 0 0 0 0 0 0 0 0 0 0 0 0 0 0 0 0 0 127 0" result="hardAlpha"/>
<feOffset dy="4"/>
<feGaussianBlur stdDeviation="2"/>
<feComposite in2="hardAlpha" operator="out"/>
<feColorMatrix type="matrix" values="0 0 0 0 0.156354 0 0 0 0 0.329167 0 0 0 0 0.309005 0 0 0 0.9 0"/>
<feBlend mode="normal" in2="BackgroundImageFix" result="effect1_dropShadow_2_2"/>
<feBlend mode="normal" in="SourceGraphic" in2="effect1_dropShadow_2_2" result="shape"/>
</filter>
<clipPath id="clip0_2_2">
<rect width="270" height="72" fill="#f7f2ef"/>
</clipPath>
</defs>
</svg>
